<svg width="375" height="30" viewBox="0 0 375 30" fill="none" xmlns="http://www.w3.org/2000/svg">
<path d="M0.64 0.999998H7.36C9.54667 0.999998 11.1867 1.58667 12.28 2.76C13.3733 3.93333 13.92 5.65333 13.92 7.92V22.08C13.92 24.3467 13.3733 26.0667 12.28 27.24C11.1867 28.4133 9.54667 29 7.36 29H0.64V0.999998ZM7.28 25C8 25 8.54667 24.7867 8.92 24.36C9.32 23.9333 9.52 23.24 9.52 22.28V7.72C9.52 6.76 9.32 6.06667 8.92 5.64C8.54667 5.21333 8 5 7.28 5H5.04V25H7.28ZM23.25 29.4C21.09 29.4 19.4367 28.7867 18.29 27.56C17.1433 26.3333 16.57 24.6 16.57 22.36V7.64C16.57 5.4 17.1433 3.66667 18.29 2.44C19.4367 1.21333 21.09 0.599998 23.25 0.599998C25.41 0.599998 27.0633 1.21333 28.21 2.44C29.3567 3.66667 29.93 5.4 29.93 7.64V22.36C29.93 24.6 29.3567 26.3333 28.21 27.56C27.0633 28.7867 25.41 29.4 23.25 29.4ZM23.25 25.4C24.77 25.4 25.53 24.48 25.53 22.64V7.36C25.53 5.52 24.77 4.6 23.25 4.6C21.73 4.6 20.97 5.52 20.97 7.36V22.64C20.97 24.48 21.73 25.4 23.25 25.4ZM32.9056 0.999998H38.4256L42.7056 17.76H42.7856V0.999998H46.7056V29H42.1856L36.9056 8.56H36.8256V29H32.9056V0.999998ZM49.8559 0.999998H54.3359L53.2559 10.04H50.8959L49.8559 0.999998ZM61.3456 5H56.7456V0.999998H70.3456V5H65.7456V29H61.3456V5ZM78.8822 0.999998H83.2822V12.8L88.8822 0.999998H93.2822L88.0422 11.28L93.3622 29H88.7622L85.0422 16.52L83.2822 20.08V29H78.8822V0.999998ZM95.4447 0.999998H99.8447V29H95.4447V0.999998ZM103.14 0.999998H107.54V25H114.78V29H103.14V0.999998ZM116.89 0.999998H121.29V25H128.53V29H116.89V0.999998ZM141.086 17.08L135.766 0.999998H140.446L143.446 11.28H143.526L146.526 0.999998H150.806L145.486 17.08V29H141.086V17.08ZM158.445 29.4C156.285 29.4 154.632 28.7867 153.485 27.56C152.339 26.3333 151.765 24.6 151.765 22.36V7.64C151.765 5.4 152.339 3.66667 153.485 2.44C154.632 1.21333 156.285 0.599998 158.445 0.599998C160.605 0.599998 162.259 1.21333 163.405 2.44C164.552 3.66667 165.125 5.4 165.125 7.64V22.36C165.125 24.6 164.552 26.3333 163.405 27.56C162.259 28.7867 160.605 29.4 158.445 29.4ZM158.445 25.4C159.965 25.4 160.725 24.48 160.725 22.64V7.36C160.725 5.52 159.965 4.6 158.445 4.6C156.925 4.6 156.165 5.52 156.165 7.36V22.64C156.165 24.48 156.925 25.4 158.445 25.4ZM174.501 29.4C172.368 29.4 170.741 28.8 169.621 27.6C168.501 26.3733 167.941 24.6267 167.941 22.36V0.999998H172.341V22.68C172.341 23.64 172.528 24.3333 172.901 24.76C173.301 25.1867 173.861 25.4 174.581 25.4C175.301 25.4 175.848 25.1867 176.221 24.76C176.621 24.3333 176.821 23.64 176.821 22.68V0.999998H181.061V22.36C181.061 24.6267 180.501 26.3733 179.381 27.6C178.261 28.8 176.634 29.4 174.501 29.4ZM184.195 0.999998H190.715C192.981 0.999998 194.635 1.53333 195.675 2.6C196.715 3.64 197.235 5.25333 197.235 7.44V9.16C197.235 12.0667 196.275 13.9067 194.355 14.68V14.76C195.421 15.08 196.168 15.7333 196.595 16.72C197.048 17.7067 197.275 19.0267 197.275 20.68V25.6C197.275 26.4 197.301 27.0533 197.355 27.56C197.408 28.04 197.541 28.52 197.755 29H193.275C193.115 28.5467 193.008 28.12 192.955 27.72C192.901 27.32 192.875 26.6 192.875 25.56V20.44C192.875 19.16 192.661 18.2667 192.235 17.76C191.835 17.2533 191.128 17 190.115 17H188.595V29H184.195V0.999998ZM190.195 13C191.075 13 191.728 12.7733 192.155 12.32C192.608 11.8667 192.835 11.1067 192.835 10.04V7.88C192.835 6.86667 192.648 6.13333 192.275 5.68C191.928 5.22667 191.368 5 190.595 5H188.595V13H190.195ZM206.048 29.4C203.914 29.4 202.301 28.8 201.208 27.6C200.114 26.3733 199.568 24.6267 199.568 22.36V20.76H203.728V22.68C203.728 24.4933 204.488 25.4 206.008 25.4C206.754 25.4 207.314 25.1867 207.688 24.76C208.088 24.3067 208.288 23.5867 208.288 22.6C208.288 21.4267 208.021 20.4 207.488 19.52C206.954 18.6133 205.968 17.5333 204.528 16.28C202.714 14.68 201.448 13.24 200.728 11.96C200.008 10.6533 199.648 9.18667 199.648 7.56C199.648 5.34667 200.208 3.64 201.327 2.44C202.448 1.21333 204.074 0.599998 206.208 0.599998C208.314 0.599998 209.901 1.21333 210.968 2.44C212.061 3.64 212.608 5.37333 212.608 7.64V8.8H208.448V7.36C208.448 6.4 208.261 5.70667 207.888 5.28C207.514 4.82667 206.968 4.6 206.248 4.6C204.781 4.6 204.048 5.49333 204.048 7.28C204.048 8.29333 204.314 9.24 204.848 10.12C205.408 11 206.408 12.0667 207.848 13.32C209.688 14.92 210.954 16.3733 211.648 17.68C212.341 18.9867 212.688 20.52 212.688 22.28C212.688 24.5733 212.114 26.3333 210.968 27.56C209.848 28.7867 208.208 29.4 206.048 29.4ZM215.21 0.999998H227.21V5H219.61V12.4H225.65V16.4H219.61V25H227.21V29H215.21V0.999998ZM229.742 0.999998H234.142V25H241.382V29H229.742V0.999998ZM243.492 0.999998H255.132V5H247.892V12.8H253.572V16.8H247.892V29H243.492V0.999998ZM263.648 0.999998H270.368C272.554 0.999998 274.194 1.58667 275.288 2.76C276.381 3.93333 276.928 5.65333 276.928 7.92V22.08C276.928 24.3467 276.381 26.0667 275.288 27.24C274.194 28.4133 272.554 29 270.368 29H263.648V0.999998ZM270.288 25C271.008 25 271.554 24.7867 271.928 24.36C272.328 23.9333 272.528 23.24 272.528 22.28V7.72C272.528 6.76 272.328 6.06667 271.928 5.64C271.554 5.21333 271.008 5 270.288 5H268.048V25H270.288ZM279.898 0.999998H286.418C288.684 0.999998 290.338 1.53333 291.378 2.6C292.418 3.64 292.938 5.25333 292.938 7.44V9.16C292.938 12.0667 291.978 13.9067 290.058 14.68V14.76C291.124 15.08 291.871 15.7333 292.298 16.72C292.751 17.7067 292.978 19.0267 292.978 20.68V25.6C292.978 26.4 293.004 27.0533 293.058 27.56C293.111 28.04 293.244 28.52 293.458 29H288.978C288.818 28.5467 288.711 28.12 288.658 27.72C288.604 27.32 288.578 26.6 288.578 25.56V20.44C288.578 19.16 288.364 18.2667 287.938 17.76C287.538 17.2533 286.831 17 285.818 17H284.298V29H279.898V0.999998ZM285.898 13C286.778 13 287.431 12.7733 287.858 12.32C288.311 11.8667 288.538 11.1067 288.538 10.04V7.88C288.538 6.86667 288.351 6.13333 287.978 5.68C287.631 5.22667 287.071 5 286.298 5H284.298V13H285.898ZM296.031 0.999998H300.431V29H296.031V0.999998ZM303.726 0.999998H309.246L313.526 17.76H313.606V0.999998H317.526V29H313.006L307.726 8.56H307.646V29H303.726V0.999998ZM320.796 0.999998H325.196V12.8L330.796 0.999998H335.196L329.956 11.28L335.276 29H330.676L326.956 16.52L325.196 20.08V29H320.796V0.999998ZM337.359 0.999998H341.759V29H337.359V0.999998ZM345.054 0.999998H350.574L354.854 17.76H354.934V0.999998H358.854V29H354.334L349.054 8.56H348.974V29H345.054V0.999998ZM368.364 29.4C366.231 29.4 364.604 28.8 363.484 27.6C362.364 26.3733 361.804 24.6267 361.804 22.36V7.64C361.804 5.37333 362.364 3.64 363.484 2.44C364.604 1.21333 366.231 0.599998 368.364 0.599998C370.498 0.599998 372.124 1.21333 373.244 2.44C374.364 3.64 374.924 5.37333 374.924 7.64V10.04H370.764V7.36C370.764 5.52 370.004 4.6 368.484 4.6C366.964 4.6 366.204 5.52 366.204 7.36V22.68C366.204 24.4933 366.964 25.4 368.484 25.4C370.004 25.4 370.764 24.4933 370.764 22.68V17.2H368.564V13.2H374.924V22.36C374.924 24.6267 374.364 26.3733 373.244 27.6C372.124 28.8 370.498 29.4 368.364 29.4Z" fill="white"/>
</svg>
