<?xml version="1.0" encoding="UTF-8"?>
<svg id="Layer_2" data-name="Layer 2" xmlns="http://www.w3.org/2000/svg" viewBox="0 0 229.14 84.34">
  <defs>
    <style>
      .cls-1 {
        fill: #fff;
      }

      .cls-2 {
        fill: #ffc300;
      }
    </style>
  </defs>
  <g id="Layer_2-2" data-name="Layer 2">
    <g>
      <g>
        <path class="cls-1" d="M10.95,6.32c5.12-3.04,7.88-4.56,8.26-4.56s1.03.35,1.94,1.05c.91.7,1.81,1.68,2.72,2.92.91,1.25,1.36,2.46,1.36,3.64v11.42c0,1.04-1.86,2.36-5.58,3.94.95.27,2.13,1.28,3.54,3.03,1.4,1.75,2.11,3.32,2.11,4.73v43.76c0,.36-2.48,1.51-7.45,3.43-4.96,1.93-8,2.89-9.11,2.89s-2.38-.97-3.81-2.92-2.14-4.28-2.14-7V11.36c0-2.45-.93-3.88-2.79-4.28v-1.5L6.87,1.7c1,.41,1.93,1.08,2.79,2.01.86.93,1.29,1.8,1.29,2.62ZM16.29,9.96c-.52-.88-1.27-1.33-2.24-1.33s-2.01.68-3.09,2.04v14.08c4.08-1.13,6.12-3.58,6.12-7.34v-4.28c0-1.22-.26-2.28-.78-3.16ZM14.42,76.33c.86,0,1.74-.36,2.65-1.09v-39.2c0-3.35-1.16-5.03-3.47-5.03-.91,0-1.79.34-2.65,1.02v39.27c0,3.36,1.16,5.03,3.47,5.03Z"/>
        <path class="cls-1" d="M31.42,72.66V7.82c0-.32,2.58-1.44,7.75-3.37,5.17-1.93,8.14-2.89,8.91-2.89s1.94.93,3.5,2.79c1.56,1.86,2.35,3.54,2.35,5.03v66.88c0,.36-2.48,1.51-7.45,3.43-4.96,1.93-8,2.89-9.11,2.89s-2.38-.97-3.81-2.92-2.14-4.28-2.14-7ZM43.04,76.33c.86,0,1.74-.36,2.65-1.09V12.92c0-3.35-1.16-5.03-3.47-5.03-.91,0-1.79.34-2.65,1.02v62.39c0,3.36,1.16,5.03,3.47,5.03Z"/>
        <path class="cls-1" d="M60.72,72.66V7.82c0-.32,2.58-1.44,7.75-3.37,5.17-1.93,8.14-2.89,8.91-2.89s1.94.93,3.5,2.79c1.56,1.86,2.35,3.54,2.35,5.03v66.88c0,.36-2.48,1.51-7.45,3.43-4.96,1.93-8,2.89-9.11,2.89s-2.38-.97-3.81-2.92-2.14-4.28-2.14-7ZM72.35,76.33c.86,0,1.74-.36,2.65-1.09V12.92c0-3.35-1.16-5.03-3.47-5.03-.91,0-1.79.34-2.65,1.02v62.39c0,3.36,1.16,5.03,3.47,5.03Z"/>
        <path class="cls-1" d="M101.05,75.92c2.76,0,4.33-.75,4.69-2.24h1.5l3.88,5.58c-.54.86-1.25,1.63-2.11,2.31-.86.68-1.7,1.02-2.52,1.02h-17.82c-.91-2.76-1.36-4.92-1.36-6.46L103.63,8.91h-6.26c-2.77,0-4.33.75-4.69,2.24h-1.5l-3.88-5.58c.54-.86,1.25-1.63,2.11-2.31.86-.68,1.7-1.02,2.52-1.02h9.11c2.76,0,4.33-.75,4.69-2.24h1.5c.63.86,1.44,2.44,2.41,4.73.97,2.29,1.46,3.66,1.46,4.11l-15.44,67.08h5.37Z"/>
        <path class="cls-1" d="M124.58,8.16c-.45,0-.86.23-1.22.68v17.95h9.59v1.63l-3.4,1.7h-6.19v6.8c0,5.03.5,36.64,1.5,37.5,1.5,1.27,3.13,2,4.9,2.18,1.77.18,3.67.27,5.71.27v1.97c-.23,0-1.9.62-5.03,1.87-3.13,1.25-5.03,1.87-5.71,1.87-1.41,0-3.34-1.09-5.81-3.26-2.47-2.18-3.71-4.53-3.71-7.07V7.82c0-.32,2.59-1.44,7.79-3.37,5.19-1.93,8.17-2.89,8.94-2.89.27,0,.59.66.95,1.97.36,1.32.78,2.9,1.26,4.76.48,1.86.97,3.23,1.5,4.11.52.88,1.51,1.33,2.96,1.33v1.36c-1,.45-2.69,1.26-5.07,2.41s-3.66,1.73-3.84,1.73c-.68,0-1.54-1.85-2.58-5.54-1.04-3.69-1.88-5.54-2.52-5.54Z"/>
      </g>
      <g>
        <path class="cls-2" d="M143.68,30.53V7.96c0-.32,2.58-1.44,7.75-3.37,5.17-1.93,8.14-2.89,8.91-2.89s1.94.93,3.5,2.79c1.56,1.86,2.35,3.54,2.35,5.03v24.62c0,.36-2.48,1.51-7.45,3.43-4.96,1.93-8,2.89-9.11,2.89s-2.38-.97-3.81-2.92-2.14-4.28-2.14-7ZM155.31,34.2c.86,0,1.74-.36,2.65-1.09V13.06c0-3.35-1.16-5.03-3.47-5.03-.91,0-1.79.34-2.65,1.02v20.13c0,3.36,1.16,5.03,3.47,5.03Z"/>
        <path class="cls-2" d="M142.73,47.91l7.48-4.08c.32.09.69.21,1.12.37.43.16,1.02.6,1.77,1.33.75.73,1.12,1.54,1.12,2.45.23-.09,1.3-.8,3.23-2.14,1.93-1.34,3.16-2.01,3.71-2.01,1.45,0,2.81.95,4.08,2.86,1.27,1.9,1.9,3.65,1.9,5.24v3.33l-7,3.94-1.16-.95c0-3.81-.36-5.98-1.09-6.53-.82-.59-2.04-.88-3.67-.88v21.69c0,2.77.93,4.33,2.79,4.69v1.5l-6.87,3.88c-1-.41-1.93-1.08-2.79-2.01-.86-.93-1.29-1.8-1.29-2.62v-22.58c0-1.99-.35-3.49-1.05-4.49-.7-1-1.46-1.5-2.28-1.5v-1.5Z"/>
      </g>
      <g>
        <path class="cls-1" d="M177.39,74.42V12.65c0-1.5-.32-2.79-.95-3.88-.64-1.09-1.43-1.63-2.38-1.63v-1.5c.32-.04,2.79-1.43,7.41-4.15.32.09.7.22,1.16.37.45.16,1.05.6,1.8,1.33.75.73,1.12,1.56,1.12,2.52.27-.14,1.04-.57,2.31-1.29,3.35-1.9,5.35-2.86,5.98-2.86,1.45,0,2.81.95,4.08,2.86,1.27,1.9,1.9,3.65,1.9,5.24v62.87c0,2.49,1.11,3.97,3.33,4.42v1.5l-7.41,4.15c-1-.41-1.93-1.08-2.79-2.01-.86-.93-1.29-1.8-1.29-2.62V15.98c0-2.86-.42-4.8-1.26-5.85s-2.46-1.56-4.86-1.56v63.13c0,1.81.23,3.05.68,3.71.45.66,1.16.99,2.11.99v2.11l-13.94,5.85-1.09-2.18c.91,0,1.79-.54,2.65-1.63.95-1.27,1.43-3.31,1.43-6.12Z"/>
        <path class="cls-1" d="M206.63,72.66V7.82c0-.32,2.58-1.44,7.75-3.37,5.17-1.93,8.14-2.89,8.91-2.89s1.94.93,3.5,2.79c1.56,1.86,2.35,3.54,2.35,5.03v66.88c0,.36-2.48,1.51-7.45,3.43-4.96,1.93-8,2.89-9.11,2.89s-2.38-.97-3.81-2.92-2.14-4.28-2.14-7ZM218.26,76.33c.86,0,1.74-.36,2.65-1.09V12.92c0-3.35-1.16-5.03-3.47-5.03-.91,0-1.79.34-2.65,1.02v62.39c0,3.36,1.16,5.03,3.47,5.03Z"/>
      </g>
    </g>
  </g>
</svg>