<svg width="243" height="92" viewBox="0 0 243 92" fill="none" xmlns="http://www.w3.org/2000/svg">
<mask id="mask0_30_535" style="mask-type:luminance" maskUnits="userSpaceOnUse" x="0" y="3" width="89" height="88">
<path d="M4.91667 36.7502H84.0833V82.5836C84.0833 83.6886 83.6443 84.7485 82.863 85.5299C82.0816 86.3113 81.0217 86.7502 79.9167 86.7502H9.08334C7.97827 86.7502 6.91846 86.3113 6.13706 85.5299C5.35566 84.7485 4.91667 83.6886 4.91667 82.5836V36.7502Z" fill="white" stroke="white" stroke-width="8.33333" stroke-linejoin="round"/>
<path d="M4.91667 18.0002C4.91667 16.8951 5.35566 15.8353 6.13706 15.0539C6.91846 14.2725 7.97827 13.8335 9.08334 13.8335H79.9167C81.0217 13.8335 82.0815 14.2725 82.863 15.0539C83.6444 15.8353 84.0833 16.8951 84.0833 18.0002V36.7502H4.91667V18.0002Z" stroke="white" stroke-width="8.33333" stroke-linejoin="round"/>
<path d="M27.8333 61.7502L40.3333 74.2502L65.3333 49.2502" stroke="black" stroke-width="8.33333" stroke-linecap="round" stroke-linejoin="round"/>
<path d="M27.8333 7.5835V24.2502M61.1667 7.5835V24.2502" stroke="white" stroke-width="8.33333" stroke-linecap="round"/>
</mask>
<g mask="url(#mask0_30_535)">
<path d="M-5.5 -2.83325H94.5V97.1667H-5.5V-2.83325Z" fill="white"/>
</g>
<path d="M122.895 59.3467L118.055 45.6667H122.695L125.655 54.7067H125.735L128.775 45.6667H132.935L128.095 59.3467L133.175 73.6667H128.535L125.335 63.9067H125.255L121.975 73.6667H117.815L122.895 59.3467Z" fill="white"/>
<path d="M176.133 12.5C178.3 5.4375 185.783 0 194.25 0C198.367 0 202.229 1.31667 205.35 3.20833C207.578 4.54191 209.536 6.28009 211.125 8.33333H215.083C218.951 8.33333 222.66 9.86979 225.395 12.6047C228.13 15.3396 229.667 19.0489 229.667 22.9167V22.975C229.667 23.9625 229.667 26.5708 229.179 29.1667H233.833C235.904 29.1667 238.225 29.6917 239.975 31.5C241.704 33.2833 242.167 35.5833 242.167 37.5708V70.8333C242.167 72.8167 241.704 75.1292 239.938 76.9042C238.171 78.6875 235.85 79.1667 233.833 79.1667H225.5V83.3333C225.5 85.3167 225.038 87.6292 223.271 89.4042C221.504 91.1875 219.183 91.6667 217.167 91.6667H179.667C177.65 91.6667 175.333 91.1875 173.558 89.4042C171.796 87.6292 171.333 85.3167 171.333 83.3333V61.7917C168.895 60.9296 166.784 59.3326 165.292 57.2208C163.799 55.1089 162.999 52.586 163 50V25C163 21.6848 164.317 18.5054 166.661 16.1612C169.005 13.817 172.185 12.5 175.5 12.5H176.133ZM225.5 37.5V70.8333H233.833V37.5H225.5ZM220.563 29.1667C220.674 28.9139 220.79 28.525 220.913 28C221.321 26.1625 221.333 23.9875 221.333 22.9167C221.333 21.2591 220.675 19.6693 219.503 18.4972C218.331 17.3251 216.741 16.6667 215.083 16.6667H206.258L205.108 14.3625C204.496 13.1375 203.096 11.5875 201.025 10.3333C199 9.1 196.613 8.33333 194.25 8.33333C187.888 8.33333 183.833 13.1417 183.833 16.6667V20.8333H175.5C174.395 20.8333 173.335 21.2723 172.554 22.0537C171.772 22.8351 171.333 23.8949 171.333 25V50C171.333 51.1051 171.772 52.1649 172.554 52.9463C173.335 53.7277 174.395 54.1667 175.5 54.1667C176.605 54.1667 177.665 53.7277 178.446 52.9463C179.228 52.1649 179.667 51.1051 179.667 50V29.1667H220.563Z" fill="white"/>
</svg>
