<svg width="175" height="70" viewBox="0 0 175 70" fill="none" xmlns="http://www.w3.org/2000/svg">
<path d="M35.6956 7.71751C39.2359 4.17762 44.0373 2.18896 49.0438 2.18896C54.0502 2.18896 58.8516 4.17762 62.3919 7.71751C65.9318 11.2578 67.9204 16.0592 67.9204 21.0656C67.9204 26.0721 65.9318 30.8735 62.3919 34.4138L46.8672 49.9384L46.8453 49.9166L34.4138 62.3481C30.8735 65.888 26.0721 67.8767 21.0656 67.8767C16.0592 67.8767 11.2578 65.888 7.71751 62.3481C4.17762 58.8079 2.18896 54.0064 2.18896 49C2.18896 43.9936 4.17762 39.1922 7.71751 35.6519L23.2422 20.125L23.2641 20.1469L35.6956 7.71751ZM43.75 46.8235L23.24 26.3135L10.8085 38.745C8.08875 41.4649 6.56084 45.1537 6.56084 49C6.56084 52.8463 8.08875 56.5352 10.8085 59.255C13.5283 61.9747 17.2171 63.5026 21.0635 63.5026C24.9098 63.5026 28.5986 61.9747 31.3185 59.255L43.75 46.8235ZM61.25 21.875C61.25 20.7147 60.7891 19.6019 59.9686 18.7814C59.1481 17.961 58.0353 17.5 56.875 17.5C55.7147 17.5 54.6019 17.961 53.7814 18.7814C52.961 19.6019 52.5 20.7147 52.5 21.875C52.5 23.0353 52.961 24.1481 53.7814 24.9686C54.6019 25.7891 55.7147 26.25 56.875 26.25C58.0353 26.25 59.1481 25.7891 59.9686 24.9686C60.7891 24.1481 61.25 23.0353 61.25 21.875Z" fill="white"/>
<path d="M90.5463 50.26L86.9163 40H90.3963L92.6163 46.78H92.6763L94.9563 40H98.0763L94.4463 50.26L98.2563 61H94.7763L92.3763 53.68H92.3163L89.8563 61H86.7363L90.5463 50.26Z" fill="white"/>
<path d="M124.954 9.54545C126.596 4.15227 132.267 0 138.684 0C141.804 0 144.732 1.00545 147.097 2.45C148.785 3.46837 150.27 4.7957 151.474 6.36364H154.474C157.405 6.36364 160.216 7.53693 162.289 9.6254C164.362 11.7139 165.526 14.5465 165.526 17.5V17.5445C165.526 18.2986 165.526 20.2905 165.157 22.2727H168.684C170.254 22.2727 172.013 22.6736 173.339 24.0545C174.649 25.4164 175 27.1727 175 28.6905V54.0909C175 55.6055 174.649 57.3714 173.311 58.7268C171.972 60.0886 170.213 60.4545 168.684 60.4545H162.368V63.6364C162.368 65.1509 162.018 66.9168 160.679 68.2723C159.34 69.6341 157.581 70 156.053 70H127.632C126.103 70 124.347 69.6341 123.002 68.2723C121.666 66.9168 121.316 65.1509 121.316 63.6364V47.1864C119.468 46.5281 117.868 45.3086 116.737 43.6959C115.606 42.0831 114.999 40.1566 115 38.1818V19.0909C115 16.5593 115.998 14.1314 117.775 12.3413C119.551 10.5511 121.961 9.54545 124.474 9.54545H124.954ZM162.368 28.6364V54.0909H168.684V28.6364H162.368ZM158.626 22.2727C158.711 22.0797 158.799 21.7827 158.892 21.3818C159.201 19.9786 159.211 18.3177 159.211 17.5C159.211 16.2342 158.711 15.0202 157.823 14.1252C156.935 13.2301 155.73 12.7273 154.474 12.7273H147.785L146.914 10.9677C146.449 10.0323 145.388 8.84864 143.819 7.89091C142.284 6.94909 140.475 6.36364 138.684 6.36364C133.862 6.36364 130.789 10.0355 130.789 12.7273V15.9091H124.474C123.636 15.9091 122.833 16.2443 122.241 16.841C121.648 17.4377 121.316 18.247 121.316 19.0909V38.1818C121.316 39.0257 121.648 39.835 122.241 40.4317C122.833 41.0284 123.636 41.3636 124.474 41.3636C125.311 41.3636 126.114 41.0284 126.707 40.4317C127.299 39.835 127.632 39.0257 127.632 38.1818V22.2727H158.626Z" fill="white"/>
</svg>
