<svg width="175" height="70" viewBox="0 0 175 70" fill="none" xmlns="http://www.w3.org/2000/svg">
<path d="M26.25 43.5078V45.2082C26.25 48.6892 27.6328 52.0276 30.0942 54.489C32.5556 56.9504 35.894 58.3332 39.375 58.3332C42.856 58.3332 46.1944 56.9504 48.6558 54.489C51.1172 52.0276 52.5 48.6892 52.5 45.2082V40.3374C50.5531 39.6494 48.9122 38.2952 47.8673 36.5142C46.8223 34.7333 46.4407 32.6403 46.7897 30.6051C47.1388 28.57 48.1961 26.7237 49.7747 25.3928C51.3534 24.0618 53.3518 23.3318 55.4167 23.3318C57.4815 23.3318 59.4799 24.0618 61.0586 25.3928C62.6372 26.7237 63.6946 28.57 64.0436 30.6051C64.3927 32.6403 64.011 34.7333 62.966 36.5142C61.9211 38.2952 60.2802 39.6494 58.3333 40.3374V45.2082C58.3333 50.2363 56.3359 55.0584 52.7806 58.6138C49.2252 62.1692 44.4031 64.1666 39.375 64.1666C34.3469 64.1666 29.5248 62.1692 25.9694 58.6138C22.414 55.0584 20.4167 50.2363 20.4167 45.2082V43.5078C16.3384 42.8185 12.6362 40.707 9.96662 37.5478C7.29704 34.3886 5.83269 30.386 5.83333 26.2499V11.6666C5.83333 10.1195 6.44791 8.63576 7.54187 7.5418C8.63583 6.44783 10.1196 5.83325 11.6667 5.83325H14.5833C15.3569 5.83325 16.0987 6.14054 16.6457 6.68752C17.1927 7.2345 17.5 7.97637 17.5 8.74992C17.5 9.52347 17.1927 10.2653 16.6457 10.8123C16.0987 11.3593 15.3569 11.6666 14.5833 11.6666H11.6667V26.2499C11.6667 29.3441 12.8958 32.3116 15.0837 34.4995C17.2717 36.6874 20.2391 37.9166 23.3333 37.9166C26.4275 37.9166 29.395 36.6874 31.5829 34.4995C33.7708 32.3116 35 29.3441 35 26.2499V11.6666H32.0833C31.3098 11.6666 30.5679 11.3593 30.0209 10.8123C29.474 10.2653 29.1667 9.52347 29.1667 8.74992C29.1667 7.97637 29.474 7.2345 30.0209 6.68752C30.5679 6.14054 31.3098 5.83325 32.0833 5.83325H35C36.5471 5.83325 38.0308 6.44783 39.1248 7.5418C40.2187 8.63576 40.8333 10.1195 40.8333 11.6666V26.2499C40.834 30.386 39.3696 34.3886 36.7 37.5478C34.0305 40.707 30.3282 42.8185 26.25 43.5078ZM55.4167 34.9999C56.1902 34.9999 56.9321 34.6926 57.4791 34.1456C58.026 33.5987 58.3333 32.8568 58.3333 32.0833C58.3333 31.3097 58.026 30.5678 57.4791 30.0209C56.9321 29.4739 56.1902 29.1666 55.4167 29.1666C54.6431 29.1666 53.9012 29.4739 53.3543 30.0209C52.8073 30.5678 52.5 31.3097 52.5 32.0833C52.5 32.8568 52.8073 33.5987 53.3543 34.1456C53.9012 34.6926 54.6431 34.9999 55.4167 34.9999Z" fill="white"/>
<path d="M90.5463 50.26L86.9163 40H90.3963L92.6163 46.78H92.6763L94.9563 40H98.0763L94.4463 50.26L98.2563 61H94.7763L92.3763 53.68H92.3163L89.8563 61H86.7363L90.5463 50.26Z" fill="white"/>
<path d="M124.954 9.54545C126.596 4.15227 132.267 0 138.684 0C141.804 0 144.732 1.00545 147.097 2.45C148.785 3.46837 150.27 4.7957 151.474 6.36364H154.474C157.405 6.36364 160.216 7.53693 162.289 9.6254C164.362 11.7139 165.526 14.5465 165.526 17.5V17.5445C165.526 18.2986 165.526 20.2905 165.157 22.2727H168.684C170.254 22.2727 172.013 22.6736 173.339 24.0545C174.649 25.4164 175 27.1727 175 28.6905V54.0909C175 55.6055 174.649 57.3714 173.311 58.7268C171.972 60.0886 170.213 60.4545 168.684 60.4545H162.368V63.6364C162.368 65.1509 162.018 66.9168 160.679 68.2723C159.34 69.6341 157.581 70 156.053 70H127.632C126.103 70 124.347 69.6341 123.002 68.2723C121.666 66.9168 121.316 65.1509 121.316 63.6364V47.1864C119.468 46.5281 117.868 45.3086 116.737 43.6959C115.606 42.0831 114.999 40.1566 115 38.1818V19.0909C115 16.5593 115.998 14.1314 117.775 12.3413C119.551 10.5511 121.961 9.54545 124.474 9.54545H124.954ZM162.368 28.6364V54.0909H168.684V28.6364H162.368ZM158.626 22.2727C158.711 22.0797 158.799 21.7827 158.892 21.3818C159.201 19.9786 159.211 18.3177 159.211 17.5C159.211 16.2342 158.711 15.0202 157.823 14.1252C156.935 13.2301 155.73 12.7273 154.474 12.7273H147.785L146.914 10.9677C146.449 10.0323 145.388 8.84864 143.819 7.89091C142.284 6.94909 140.475 6.36364 138.684 6.36364C133.862 6.36364 130.789 10.0355 130.789 12.7273V15.9091H124.474C123.636 15.9091 122.833 16.2443 122.241 16.841C121.648 17.4377 121.316 18.247 121.316 19.0909V38.1818C121.316 39.0257 121.648 39.835 122.241 40.4317C122.833 41.0284 123.636 41.3636 124.474 41.3636C125.311 41.3636 126.114 41.0284 126.707 40.4317C127.299 39.835 127.632 39.0257 127.632 38.1818V22.2727H158.626Z" fill="white"/>
</svg>
