<svg width="293" height="105" viewBox="0 0 293 105" fill="none" xmlns="http://www.w3.org/2000/svg">
<g clip-path="url(#clip0_16_84)">
<path d="M14.0017 7.86817C20.5486 4.08349 24.0778 2.19115 24.5637 2.19115C25.0496 2.19115 25.8808 2.62689 27.0444 3.49836C28.208 4.36983 29.3588 5.5899 30.5224 7.13365C31.686 8.68985 32.2615 10.1963 32.2615 11.6653V25.8828C32.2615 27.1775 29.8831 28.8209 25.1263 30.7879C26.3411 31.124 27.85 32.3815 29.6529 34.5601C31.4431 36.7388 32.351 38.6934 32.351 40.4488V94.9283C32.351 95.3765 29.1798 96.8082 22.8247 99.1985C16.4824 101.601 12.5951 102.796 11.1758 102.796C9.75644 102.796 8.13249 101.589 6.30396 99.1612C4.47543 96.7335 3.56756 93.8327 3.56756 90.4464V14.1428C3.56756 11.0926 2.37837 9.31233 0 8.81434V6.9469L8.78463 2.11646C10.0633 2.62689 11.2525 3.46101 12.3522 4.61883C13.4519 5.77664 14.0017 6.85976 14.0017 7.88062V7.86817ZM20.8299 12.3998C20.165 11.3043 19.206 10.744 17.9657 10.744C16.7253 10.744 15.3955 11.5906 14.0145 13.2838V30.8128C19.2316 29.406 21.8401 26.3558 21.8401 21.6748V16.3464C21.8401 14.8275 21.5076 13.5078 20.8427 12.4123L20.8299 12.3998ZM18.4388 95.0279C19.5384 95.0279 20.6637 94.5797 21.8273 93.6709V44.8684C21.8273 40.6978 20.344 38.6063 17.3902 38.6063C16.2266 38.6063 15.1014 39.0295 14.0017 39.8761V88.7657C14.0017 92.9488 15.485 95.0279 18.4388 95.0279Z" fill="white"/>
<path d="M40.1766 90.4589V9.73559C40.1766 9.33721 43.4756 7.94285 50.0865 5.54008C56.6973 3.1373 60.495 1.94214 61.4796 1.94214C62.4642 1.94214 63.9603 3.09995 65.9551 5.41558C67.9498 7.73121 68.96 9.82274 68.96 11.6777V94.9407C68.96 95.3889 65.7888 96.8206 59.4337 99.2109C53.0914 101.614 49.2042 102.809 47.7848 102.809C46.3655 102.809 44.7415 101.601 42.913 99.1736C41.0844 96.7459 40.1766 93.8452 40.1766 90.4589ZM55.035 95.0279C56.1347 95.0279 57.2599 94.5797 58.4235 93.6709V16.0849C58.4235 11.9143 56.9403 9.82274 53.9865 9.82274C52.8229 9.82274 51.6976 10.246 50.5979 11.0926V88.7657C50.5979 92.9488 52.0812 95.0279 55.035 95.0279Z" fill="white"/>
<path d="M77.6423 90.4589V9.73559C77.6423 9.33721 80.9414 7.94285 87.5522 5.54008C94.1631 3.1373 97.9608 1.94214 98.9454 1.94214C99.93 1.94214 101.426 3.09995 103.421 5.41558C105.416 7.73121 106.426 9.82274 106.426 11.6777V94.9407C106.426 95.3889 103.255 96.8206 96.8995 99.2109C90.5571 101.614 86.6699 102.809 85.2506 102.809C83.8312 102.809 82.2073 101.601 80.3787 99.1736C78.5502 96.7459 77.6423 93.8452 77.6423 90.4589ZM92.5135 95.0279C93.6132 95.0279 94.7385 94.5797 95.9021 93.6709V16.0849C95.9021 11.9143 94.4188 9.82274 91.465 9.82274C90.3014 9.82274 89.1762 10.246 88.0765 11.0926V88.7657C88.0765 92.9488 89.5598 95.0279 92.5135 95.0279Z" fill="white"/>
<path d="M129.212 94.5174C132.741 94.5174 134.749 93.5837 135.209 91.7287H137.127L142.089 98.6756C141.398 99.7463 140.49 100.705 139.39 101.551C138.291 102.398 137.217 102.821 136.168 102.821H113.382C112.218 99.3852 111.643 96.6961 111.643 94.7789L132.511 11.0926H124.506C120.964 11.0926 118.97 12.0263 118.509 13.8813H116.591L111.63 6.93443C112.32 5.86377 113.228 4.90515 114.328 4.05857C115.428 3.212 116.502 2.78871 117.55 2.78871H129.199C132.728 2.78871 134.736 1.85499 135.196 0H137.114C137.92 1.07067 138.956 3.0377 140.196 5.88867C141.436 8.73963 142.063 10.4452 142.063 11.0055L122.32 94.5174H129.186H129.212Z" fill="white"/>
<path d="M159.3 10.1589C158.724 10.1589 158.2 10.4452 157.74 11.0055V33.3525H170.002V35.3818L165.655 37.4982H157.74V45.964C157.74 52.2261 158.379 91.5793 159.658 92.65C161.576 94.2311 163.66 95.1399 165.923 95.364C168.187 95.5881 170.616 95.7001 173.225 95.7001V98.1527C172.931 98.1527 170.795 98.9246 166.793 100.481C162.791 102.037 160.361 102.809 159.492 102.809C157.689 102.809 155.221 101.452 152.062 98.7503C148.904 96.0363 147.318 93.1106 147.318 89.9484V9.73559C147.318 9.33721 150.63 7.94285 157.279 5.54008C163.916 3.1373 167.726 1.94214 168.711 1.94214C169.056 1.94214 169.465 2.76381 169.926 4.39471C170.386 6.03806 170.923 8.0051 171.537 10.3207C172.151 12.6364 172.777 14.3419 173.455 15.4375C174.12 16.5331 175.386 17.0933 177.24 17.0933V18.7865C175.961 19.3467 173.8 20.3551 170.757 21.7868C167.714 23.2185 166.077 23.9406 165.847 23.9406C164.977 23.9406 163.877 21.6374 162.548 17.0435C161.218 12.4496 160.144 10.1464 159.325 10.1464L159.3 10.1589Z" fill="white"/>
<path d="M183.723 38.0087V9.90991C183.723 9.51152 187.022 8.11717 193.633 5.71439C200.244 3.31162 204.041 2.11646 205.026 2.11646C206.01 2.11646 207.506 3.27427 209.501 5.5899C211.496 7.90552 212.506 9.99706 212.506 11.852V42.503C212.506 42.9512 209.335 44.3829 202.98 46.7732C196.638 49.176 192.75 50.3711 191.331 50.3711C189.912 50.3711 188.288 49.1635 186.459 46.7359C184.631 44.3082 183.723 41.4074 183.723 38.0211V38.0087ZM198.594 42.5777C199.694 42.5777 200.819 42.1295 201.983 41.2207V16.2592C201.983 12.0886 200.499 9.99706 197.545 9.99706C196.382 9.99706 195.257 10.4203 194.157 11.2669V36.328C194.157 40.511 195.64 42.5901 198.594 42.5901V42.5777Z" fill="#FFC300"/>
<path d="M182.508 59.6461L192.073 54.5667C192.482 54.6787 192.955 54.8281 193.505 55.0273C194.055 55.2265 194.809 55.7743 195.768 56.6831C196.727 57.5919 197.2 58.6003 197.2 59.7332C197.494 59.6212 198.863 58.7373 201.33 57.069C203.798 55.4008 205.371 54.5667 206.074 54.5667C207.928 54.5667 209.667 55.7494 211.291 58.1272C212.915 60.4927 213.721 62.6713 213.721 64.6508V68.7966L204.77 73.7017L203.287 72.519C203.287 67.7757 202.826 65.0741 201.893 64.3894C200.845 63.6549 199.284 63.2938 197.2 63.2938V90.297C197.2 93.7456 198.389 95.6877 200.768 96.1359V98.0033L191.983 102.834C190.704 102.323 189.515 101.489 188.416 100.331C187.316 99.1736 186.766 98.0905 186.766 97.0696V68.9584C186.766 66.4809 186.319 64.6135 185.423 63.3685C184.528 62.1236 183.557 61.5011 182.508 61.5011V59.6336V59.6461Z" fill="#FFC300"/>
<path d="M226.828 92.65V15.7487C226.828 13.8813 226.418 12.2753 225.613 10.9183C224.794 9.56129 223.784 8.88901 222.57 8.88901V7.02157C222.979 6.97177 226.137 5.24127 232.045 1.85498C232.454 1.96703 232.94 2.12887 233.528 2.31562C234.103 2.51481 234.871 3.06259 235.83 3.97141C236.789 4.88024 237.262 5.91355 237.262 7.10872C237.607 6.93442 238.592 6.39909 240.216 5.50272C244.499 3.13729 247.057 1.94213 247.862 1.94213C249.716 1.94213 251.455 3.12484 253.079 5.50272C254.703 7.86814 255.509 10.0468 255.509 12.0263V90.297C255.509 93.397 256.928 95.2395 259.767 95.7997V97.6672L250.292 102.834C249.013 102.323 247.824 101.489 246.724 100.331C245.624 99.1736 245.075 98.0905 245.075 97.0696V19.8945C245.075 16.3339 244.537 13.9187 243.463 12.6114C242.389 11.3042 240.318 10.6693 237.249 10.6693V89.2637C237.249 91.5171 237.543 93.0608 238.118 93.8825C238.694 94.7042 239.602 95.115 240.816 95.115V97.7419L222.991 105.025L221.598 102.311C222.761 102.311 223.887 101.639 224.986 100.282C226.201 98.7005 226.815 96.1608 226.815 92.6624L226.828 92.65Z" fill="white"/>
<path d="M264.217 90.4589V9.73559C264.217 9.33721 267.516 7.94285 274.126 5.54008C280.737 3.1373 284.535 1.94214 285.52 1.94214C286.504 1.94214 288 3.09995 289.995 5.41558C291.99 7.73121 293 9.82274 293 11.6777V94.9407C293 95.3889 289.829 96.8206 283.474 99.2109C277.131 101.614 273.244 102.809 271.825 102.809C270.405 102.809 268.782 101.601 266.953 99.1736C265.124 96.7459 264.217 93.8452 264.217 90.4589ZM279.088 95.0279C280.187 95.0279 281.313 94.5797 282.476 93.6709V16.0849C282.476 11.9143 280.993 9.82274 278.039 9.82274C276.876 9.82274 275.75 10.246 274.651 11.0926V88.7657C274.651 92.9488 276.134 95.0279 279.088 95.0279Z" fill="white"/>
</g>
<defs>
<clipPath id="clip0_16_84">
<rect width="293" height="105" fill="white"/>
</clipPath>
</defs>
</svg>
