<svg width="22" height="22" viewBox="0 0 22 22" fill="none" xmlns="http://www.w3.org/2000/svg">
<path d="M22 20.7778L22 1.22222C22 0.89807 21.8712 0.587192 21.642 0.357981C21.4128 0.12877 21.1019 -7.85117e-08 20.7778 -1.0685e-07L1.22223 -1.81645e-06C0.898072 -1.84479e-06 0.587194 0.128768 0.357983 0.357979C0.128771 0.58719 1.84479e-06 0.898068 1.81645e-06 1.22222L1.0685e-07 20.7778C7.85117e-08 21.1019 0.12877 21.4128 0.357981 21.642C0.587192 21.8712 0.89807 22 1.22222 22L20.7778 22C21.1019 22 21.4128 21.8712 21.642 21.642C21.8712 21.4128 22 21.1019 22 20.7778ZM12.2222 17.1111L9.77778 17.1111L9.77778 14.6667L12.2222 14.6667L12.2222 17.1111ZM12.2222 12.2222L9.77778 12.2222L9.77778 4.88889L12.2222 4.88889L12.2222 12.2222Z" fill="#FF9142"/>
</svg>
