<?xml version="1.0" encoding="UTF-8"?>
<svg id="Layer_2" data-name="Layer 2" xmlns="http://www.w3.org/2000/svg" viewBox="0 0 84.33 82.85">
  <defs>
    <style>
      .cls-1 {
        fill: #fff;
      }

      .cls-2 {
        fill: #ffc300;
      }
    </style>
  </defs>
  <g id="Layer_2-2" data-name="Layer 2">
    <g>
      <path class="cls-1" d="M10.95,4.83C16.07,1.79,18.82.27,19.21.27s1.03.35,1.94,1.05c.91.7,1.81,1.68,2.72,2.92.91,1.25,1.36,2.46,1.36,3.64v11.42c0,1.04-1.86,2.36-5.58,3.94.95.27,2.13,1.28,3.54,3.03,1.4,1.75,2.11,3.32,2.11,4.73v43.76c0,.36-2.48,1.51-7.45,3.43-4.96,1.93-8,2.89-9.11,2.89s-2.38-.97-3.81-2.92-2.14-4.28-2.14-7V9.86c0-2.45-.93-3.88-2.79-4.28v-1.5L6.87.2c1,.41,1.93,1.08,2.79,2.01.86.93,1.29,1.8,1.29,2.62ZM16.29,8.47c-.52-.88-1.27-1.33-2.24-1.33s-2.01.68-3.09,2.04v14.08c4.08-1.13,6.12-3.58,6.12-7.34v-4.28c0-1.22-.26-2.28-.78-3.16ZM14.42,74.84c.86,0,1.74-.36,2.65-1.09v-39.2c0-3.35-1.16-5.03-3.47-5.03-.91,0-1.79.34-2.65,1.02v39.27c0,3.36,1.16,5.03,3.47,5.03Z"/>
      <path class="cls-1" d="M58.55,72.92V11.15c0-1.5-.32-2.79-.95-3.88-.64-1.09-1.43-1.63-2.38-1.63v-1.5c.32-.04,2.79-1.43,7.41-4.15.32.09.7.22,1.16.37.45.16,1.05.6,1.8,1.33.75.73,1.12,1.56,1.12,2.52.27-.14,1.04-.57,2.31-1.29,3.35-1.9,5.35-2.86,5.98-2.86,1.45,0,2.81.95,4.08,2.86,1.27,1.9,1.9,3.65,1.9,5.24v62.87c0,2.49,1.11,3.97,3.33,4.42v1.5l-7.41,4.15c-1-.41-1.93-1.08-2.79-2.01-.86-.93-1.29-1.8-1.29-2.62V14.48c0-2.86-.42-4.8-1.26-5.85s-2.46-1.56-4.86-1.56v63.13c0,1.81.23,3.05.68,3.71.45.66,1.16.99,2.11.99v2.11l-13.94,5.85-1.09-2.18c.91,0,1.79-.54,2.65-1.63.95-1.27,1.43-3.31,1.43-6.12Z"/>
      <path class="cls-2" d="M36.99,82.85l-5.92-9.66L46.58.48l.68-.27,4.9,9.66-15.16,72.99Z"/>
    </g>
  </g>
</svg>